# xmcd
#
# Track frame offsets:
#	150
#	12250
#	21525
#	30497
#	41197
#	51510
#	64662
#	74570
#	86562
#	96020
#	107822
#	120192
#	131820
#	143255
#	152810
#	163057
#	172715
#	181767
#	192060
#	204227
#	213722
#	224577
#	234580
#	244927
#
# Disc length: 3427 seconds
# Revision: 3
# Processed by: cddbd v1.5.2PL0 Copyright (c) Steve Scherf et al.
# Submitted via: dBpowerAMP V12.0
#
DISCID=540d6118
DTITLE=Waylon Jennings - Folk Country - Waylon Sings Ol' Harlan
DYEAR=2009
DGENRE=Country
TTITLE0=Another Bridge To Burn
TTITLE1=Stop the World (And Let Me Off)
TTITLE2=Cindy of New Orleans
TTITLE3=Look Into My Teardrops
TTITLE4=Down Came the World
TTITLE5=I Don't Mind
TTITLE6=Just For You
TTITLE7=Now Everybody Knows
TTITLE8=That's the Chance I'll Have To Take
TTITLE9=What Makes a Man Wander
TTITLE10=I'm a Man of Constant Sorrow
TTITLE11=What's Left of Me
TTITLE12=She Called Me Baby
TTITLE13=Sunset and Vine
TTITLE14=Woman, Let Me Sing You a Song
TTITLE15=The Everglades
TTITLE16=She's Gone, Gone, Gone
TTITLE17=Busted
TTITLE18=Beautiful Annabel Lee
TTITLE19=Heartaches By the Number
TTITLE20=Tiger By the Tail
TTITLE21=Heartaches For a Dime
TTITLE22=Foolin' Around
TTITLE23=In This Very Same Room
EXTD=
EXTT0=
EXTT1=
EXTT2=
EXTT3=
EXTT4=
EXTT5=
EXTT6=
EXTT7=
EXTT8=
EXTT9=
EXTT10=
EXTT11=
EXTT12=
EXTT13=
EXTT14=
EXTT15=
EXTT16=
EXTT17=
EXTT18=
EXTT19=
EXTT20=
EXTT21=
EXTT22=
EXTT23=
PLAYORDER=
